<svg id="Capa_1" data-name="Capa 1" xmlns="http://www.w3.org/2000/svg" viewBox="0 0 500 500"><defs><style>.cls-1{fill:#fff;}</style></defs><path class="cls-1" d="M458,458H42V42H458ZM296.86,389.16c-14.9,8.83-29.21,14-44.8,15.8-13.24,1.49-25.57-.1-37-7.53-22.9-14.92-33.9-36.58-35-63.24-1-24.37-.49-48.71,4-72.9,6.38-34.47,15.86-67.74,34.41-97.85,18-29.2,41.1-53.53,70.7-71,8.49-5,18.37-8.1,28-10.67a31.49,31.49,0,0,1,27.62,5.58c13.54,10.16,14.89,29.48,2.91,44a98.05,98.05,0,0,1-18.74,17.67c-6.52,4.62-10.35,10.32-13.17,17.53,5.33,6.07,12.5,6.67,19,6.2,34.82-2.57,69.46-39,67.86-74.12-1-22.48-11.48-37.45-30.72-46.59-17.57-8.34-36.72-10.49-55.8-7.45-62.6,10-111.63,43.49-152.12,90.56-21.71,25.24-37.22,54.48-49.54,85.31s-21.4,62.45-19,96.29c.39,5.36.18,10.77,0,16.16-.76,27.38,6.9,52.53,21,75.67C130,430.94,149.13,446,175,452.82c18.4,4.88,36.34,2.82,54.32-.28,22.73-3.91,42.59-14.7,61-28.24,5.42-4,11.64-7.24,14.78-14.63C302.58,403.45,300,396.9,296.86,389.16Z"/><path d="M296.86,389.16c3.1,7.74,5.72,14.29,8.22,20.51-3.14,7.39-9.36,10.65-14.78,14.63-18.42,13.54-38.28,24.33-61,28.24-18,3.1-35.92,5.16-54.32.28-25.84-6.85-45-21.88-58.54-44.21-14.07-23.14-21.73-48.29-21-75.67.14-5.39.35-10.8,0-16.16-2.42-33.84,6.64-65.42,19-96.29s27.83-60.07,49.54-85.31c40.49-47.07,89.52-80.59,152.12-90.56,19.08-3,38.23-.89,55.8,7.45,19.24,9.14,29.69,24.11,30.72,46.59,1.6,35.1-33,71.55-67.86,74.12-6.46.47-13.63-.13-19-6.2,2.82-7.21,6.65-12.91,13.17-17.53a98.05,98.05,0,0,0,18.74-17.67c12-14.55,10.63-33.87-2.91-44a31.49,31.49,0,0,0-27.62-5.58c-9.61,2.57-19.49,5.66-28,10.67-29.6,17.47-52.72,41.8-70.7,71-18.55,30.11-28,63.38-34.41,97.85-4.47,24.19-5,48.53-4,72.9,1.13,26.66,12.13,48.32,35,63.24,11.39,7.43,23.72,9,37,7.53C267.65,403.21,282,398,296.86,389.16Z"/></svg>